<?xml version="1.0" encoding="UTF-8" standalone="no"?>
<svg
   version="1.1"
   x="0px"
   y="0px"
   width="100"
   height="100"
   viewBox="0 0 100 100"
   enable-background="new 0 0 202 223.666"
   xml:space="preserve"
   id="svg34"
   sodipodi:docname="symfony-vite.svg"
   inkscape:version="1.1.1 (3bf5ae0d25, 2021-09-20, custom)"
   xmlns:inkscape="http://www.inkscape.org/namespaces/inkscape"
   xmlns:sodipodi="http://sodipodi.sourceforge.net/DTD/sodipodi-0.dtd"
   xmlns="http://www.w3.org/2000/svg"
   xmlns:svg="http://www.w3.org/2000/svg"
   xmlns:rdf="http://www.w3.org/1999/02/22-rdf-syntax-ns#"
   xmlns:cc="http://creativecommons.org/ns#"
   xmlns:dc="http://purl.org/dc/elements/1.1/"><metadata
   id="metadata40"><rdf:RDF><cc:Work
       rdf:about=""><dc:format>image/svg+xml</dc:format><dc:type
         rdf:resource="http://purl.org/dc/dcmitype/StillImage" /></cc:Work></rdf:RDF></metadata><defs
   id="defs38">
	
	

		
		
	
			
			
		<linearGradient
   id="paint0_linear"
   x1="6.0001702"
   y1="32.999901"
   x2="235"
   y2="344"
   gradientUnits="userSpaceOnUse"
   gradientTransform="matrix(0.25113421,0,0,0.25113421,-86.224674,78.669027)"><stop
     stop-color="#41D1FF"
     id="stop6" /><stop
     offset="1"
     stop-color="#BD34FE"
     id="stop8" /></linearGradient><linearGradient
   id="paint1_linear"
   x1="194.651"
   y1="8.8181801"
   x2="236.076"
   y2="292.98901"
   gradientUnits="userSpaceOnUse"
   gradientTransform="matrix(0.14796385,0.02891567,-0.02891567,0.14796385,39.89366,33.579468)"><stop
     stop-color="#FFEA83"
     id="stop11" /><stop
     offset="0.0833333"
     stop-color="#FFDD35"
     id="stop13" /><stop
     offset="1"
     stop-color="#FFA800"
     id="stop15" /></linearGradient></defs><sodipodi:namedview
   pagecolor="#ffffff"
   bordercolor="#666666"
   borderopacity="1"
   objecttolerance="10"
   gridtolerance="10"
   guidetolerance="10"
   inkscape:pageopacity="0"
   inkscape:pageshadow="2"
   inkscape:window-width="1680"
   inkscape:window-height="1005"
   id="namedview36"
   showgrid="false"
   inkscape:snap-others="false"
   inkscape:object-nodes="false"
   inkscape:snap-nodes="false"
   inkscape:snap-bbox="true"
   inkscape:bbox-nodes="true"
   inkscape:zoom="5.4187092"
   inkscape:cx="40.600075"
   inkscape:cy="64.775575"
   inkscape:window-x="1920"
   inkscape:window-y="0"
   inkscape:window-maximized="1"
   inkscape:current-layer="svg34"
   inkscape:pagecheckerboard="0"><inkscape:grid
     type="xygrid"
     id="grid884" /></sodipodi:namedview>



<path
   d="M 100,49.996434 C 100,77.612645 77.614236,100 49.998667,100 22.384881,100 -3.2245002e-7,77.612645 -3.2245002e-7,49.996434 -3.2245002e-7,22.38468 22.38399,-3.2178575e-7 49.998667,-3.2178575e-7 77.614236,-3.2178575e-7 100,22.38468 100,49.996434 Z"
   id="path7"
   style="stroke-width:0.999996" /><path
   fill="#ffffff"
   d="m 62.255552,8.6795974 c -5.079125,0.17385 -9.512772,2.9777296 -12.814159,6.8469946 -3.65533,4.248168 -6.083895,9.281779 -7.837562,14.425048 -3.132884,-2.569406 -5.548077,-5.893942 -10.577275,-7.340013 -3.886239,-1.117095 -7.966835,-0.657062 -11.720235,2.138794 -1.775955,1.327497 -3.001828,3.33256 -3.584006,5.223508 -1.508492,4.901663 1.585165,9.268405 2.990238,10.833051 l 3.073152,3.290658 c 0.632104,0.646364 2.159319,2.329583 1.412205,4.742079 -0.80239,2.627356 -3.968262,4.323948 -7.214372,3.32632 -1.450542,-0.444877 -3.533189,-1.524526 -3.06602,-3.042812 0.191682,-0.623183 0.637454,-1.092131 0.87728,-1.623486 0.217536,-0.464491 0.32363,-0.808623 0.390496,-1.016351 0.592876,-1.933741 -0.218429,-4.45233 -2.291268,-5.093344 -1.9355402,-0.593763 -3.9147682,-0.123032 -4.6823872,2.367027 -0.871038,2.829735 0.484108,7.965872 7.7394912,10.200061 8.50087,2.616657 15.688496,-2.013979 16.709314,-8.047002 0.642803,-3.77922 -1.065395,-6.590232 -4.191148,-10.20006 l -2.548924,-2.819928 c -1.54237,-1.541465 -2.071947,-4.169712 -0.475192,-6.189041 1.348014,-1.704616 3.266616,-2.430326 6.411091,-1.576235 4.591451,1.244584 6.63576,4.430041 10.04859,6.999447 -1.406856,4.624396 -2.329604,9.26484 -3.162306,13.425637 l -0.511746,3.103436 c -2.439264,12.795321 -4.30259,19.823297 -9.143673,23.857496 -0.975349,0.694507 -2.369723,1.732254 -4.470201,1.807143 -1.103731,0.03299 -1.459457,-0.72571 -1.474613,-1.057361 -0.02407,-0.771178 0.626755,-1.126901 1.059154,-1.472817 0.648152,-0.353048 1.626176,-0.938787 1.558419,-2.813687 -0.06954,-2.214575 -1.905229,-4.135834 -4.556681,-4.048464 -1.987251,0.06687 -5.014934,1.935524 -4.900816,5.359022 0.116792,3.536722 3.411938,6.185475 8.381403,6.017866 2.655909,-0.09094 8.588242,-1.169695 14.432311,-8.117433 6.803371,-7.965872 8.706817,-17.095198 10.138636,-23.77815 l 1.598538,-8.823529 c 0.884412,0.106092 1.835689,0.178307 2.868096,0.20327 8.473233,0.179199 12.709849,-4.208049 12.77404,-7.40153 0.04369,-1.931958 -1.265992,-3.835387 -3.101681,-3.789918 -1.311461,0.03655 -2.959925,0.911149 -3.353988,2.725424 -0.388713,1.778614 2.695137,3.386053 0.285294,4.950698 -1.711764,1.107288 -4.779566,1.88649 -9.10177,1.254391 l 0.78545,-4.343562 c 1.603887,-8.236007 3.582223,-18.365636 11.087238,-18.613483 0.5483,-0.02585 2.547141,0.02318 2.594393,1.348002 0.01248,0.439527 -0.09718,0.555426 -0.614274,1.566428 -0.527794,0.788118 -0.725716,1.462119 -0.699862,2.232406 0.07132,2.100458 1.669862,3.484121 3.986093,3.403883 3.096331,-0.103418 3.984309,-3.116809 3.933491,-4.665407 C 71.16564,10.812151 67.329327,8.5119894 62.255552,8.6795974 Z"
   id="path9"
   style="stroke-width:1.12166" />
<path
   d="m 83.196365,42.283704 -20.918843,0.01052 c -0.343824,1.68e-4 -0.643841,0.232885 -0.729631,0.565762 l -5.329858,20.6893 c -0.125487,0.487321 0.252496,0.958435 0.755362,0.941497 l 5.862292,-0.198343 c 0.548482,-0.01847 0.932373,0.536443 0.721366,1.043151 l -3.261302,7.834971 c -0.219493,0.527324 0.204383,1.097732 0.772588,1.039642 l 3.670279,-0.375549 c 0.568974,-0.0581 0.993032,0.513735 0.771975,1.041211 l -5.153455,12.30099 c -0.322413,0.769433 0.658663,1.415088 1.237784,0.81457 l 0.386838,-0.401071 22.819915,-29.55503 c 0.382123,-0.49485 0.03029,-1.213014 -0.594937,-1.214488 l -5.991616,-0.014 c -0.563028,-0.0014 -0.925929,-0.596936 -0.669048,-1.097858 l 6.321498,-12.327484 c 0.25721,-0.501788 -0.107238,-1.098059 -0.671207,-1.097788 z"
   fill="url(#paint1_linear)"
   id="path4"
   style="fill:url(#paint1_linear);stroke-width:0.600327" /></svg>
