<?xml version="1.0" encoding="UTF-8" standalone="no"?>
<svg
   xmlns:dc="http://purl.org/dc/elements/1.1/"
   xmlns:cc="http://creativecommons.org/ns#"
   xmlns:rdf="http://www.w3.org/1999/02/22-rdf-syntax-ns#"
   xmlns:svg="http://www.w3.org/2000/svg"
   xmlns="http://www.w3.org/2000/svg"
   xmlns:sodipodi="http://sodipodi.sourceforge.net/DTD/sodipodi-0.dtd"
   xmlns:inkscape="http://www.inkscape.org/namespaces/inkscape"
   width="100"
   height="100"
   viewBox="0 0 100 100"
   fill="none"
   version="1.1"
   id="svg20"
   sodipodi:docname="vitejs.svg"
   inkscape:version="1.0.2 (e86c870879, 2021-01-15, custom)">
  <metadata
     id="metadata24">
    <rdf:RDF>
      <cc:Work
         rdf:about="">
        <dc:format>image/svg+xml</dc:format>
        <dc:type
           rdf:resource="http://purl.org/dc/dcmitype/StillImage" />
        <dc:title></dc:title>
      </cc:Work>
    </rdf:RDF>
  </metadata>
  <sodipodi:namedview
     pagecolor="#ffffff"
     bordercolor="#666666"
     borderopacity="1"
     objecttolerance="10"
     gridtolerance="10"
     guidetolerance="10"
     inkscape:pageopacity="0"
     inkscape:pageshadow="2"
     inkscape:window-width="1493"
     inkscape:window-height="894"
     id="namedview22"
     showgrid="true"
     inkscape:zoom="4.2425743"
     inkscape:cx="34.036179"
     inkscape:cy="69.024131"
     inkscape:window-x="0"
     inkscape:window-y="0"
     inkscape:window-maximized="0"
     inkscape:current-layer="svg20">
    <inkscape:grid
       type="xygrid"
       id="grid853" />
  </sodipodi:namedview>
  <g
     id="g851"
     transform="matrix(0.25113421,0,0,0.25113421,-1.6051699,0.36061206)"
     style="stroke-width:3.98193">
    <path
       d="M 399.641,59.5246 215.643,388.545 c -3.799,6.793 -13.559,6.833 -17.415,0.073 L 10.5817,59.5563 C 6.38087,52.1896 12.6802,43.2665 21.0281,44.7586 L 205.223,77.6824 c 1.175,0.21 2.378,0.208 3.553,-0.0061 L 389.119,44.8058 c 8.32,-1.5164 14.649,7.3376 10.522,14.7188 z"
       fill="url(#paint0_linear)"
       id="path2"
       style="fill:url(#paint0_linear);stroke-width:3.98193" />
    <path
       d="M 292.965,1.5744 156.801,28.2552 c -2.238,0.4385 -3.895,2.3351 -4.03,4.6112 L 144.395,174.33 c -0.197,3.332 2.863,5.918 6.115,5.168 l 37.91,-8.749 c 3.547,-0.818 6.752,2.306 6.023,5.873 l -11.263,55.153 c -0.758,3.712 2.727,6.886 6.352,5.785 l 23.415,-7.114 c 3.63,-1.102 7.118,2.081 6.35,5.796 l -17.899,86.633 c -1.12,5.419 6.088,8.374 9.094,3.728 L 212.5,323.5 323.454,102.072 c 1.858,-3.7075 -1.346,-7.935 -5.418,-7.1492 l -39.022,7.5312 c -3.667,0.707 -6.787,-2.708 -5.752,-6.2957 L 298.731,7.86689 c 1.036,-3.59375 -2.095,-7.011709 -5.766,-6.29249 z"
       fill="url(#paint1_linear)"
       id="path4"
       style="fill:url(#paint1_linear);stroke-width:3.98193" />
  </g>
  <defs
     id="defs18">
    <linearGradient
       id="paint0_linear"
       x1="6.0001702"
       y1="32.999901"
       x2="235"
       y2="344"
       gradientUnits="userSpaceOnUse">
      <stop
         stop-color="#41D1FF"
         id="stop6" />
      <stop
         offset="1"
         stop-color="#BD34FE"
         id="stop8" />
    </linearGradient>
    <linearGradient
       id="paint1_linear"
       x1="194.651"
       y1="8.8181801"
       x2="236.076"
       y2="292.98901"
       gradientUnits="userSpaceOnUse">
      <stop
         stop-color="#FFEA83"
         id="stop11" />
      <stop
         offset="0.0833333"
         stop-color="#FFDD35"
         id="stop13" />
      <stop
         offset="1"
         stop-color="#FFA800"
         id="stop15" />
    </linearGradient>
  </defs>
</svg>
